<svg width="27" height="25" viewBox="0 0 27 25" fill="none" xmlns="http://www.w3.org/2000/svg">
<g filter="url(#filter0_d_3603_396)">
<path d="M9.09384 17.0638C8.77451 17.3541 8.45519 17.5791 8.13586 17.7387C7.81654 17.8984 7.51173 18.0145 7.22143 18.0871C6.93114 18.1597 6.65536 18.2032 6.39409 18.2177C6.14734 18.2322 5.92962 18.2395 5.74093 18.2395C5.08776 18.2395 4.47088 18.1161 3.89029 17.8694C3.32422 17.6081 2.82346 17.2597 2.38802 16.8243C1.96709 16.3743 1.62599 15.8591 1.36472 15.2785C1.11797 14.6834 0.994598 14.052 0.994598 13.3843C0.994598 12.7166 1.11797 12.0925 1.36472 11.5119C1.62599 10.9168 1.96709 10.4015 2.38802 9.96608C2.82346 9.51612 3.32422 9.16776 3.89029 8.92101C4.47088 8.65975 5.08776 8.52911 5.74093 8.52911C5.92962 8.52911 6.14734 8.53637 6.39409 8.55089C6.65536 8.5654 6.93114 8.60895 7.22143 8.68152C7.51173 8.75409 7.81654 8.87021 8.13586 9.02987C8.45519 9.18954 8.77451 9.41452 9.09384 9.70481V4.98025H11.2275V18H9.09384V17.0638ZM6.08928 16.2365C6.51021 16.2365 6.90211 16.1711 7.26498 16.0405C7.62785 15.8954 7.93991 15.6994 8.20118 15.4527C8.47696 15.1914 8.69468 14.8866 8.85434 14.5382C9.01401 14.1899 9.09384 13.8052 9.09384 13.3843C9.09384 12.9634 9.01401 12.5787 8.85434 12.2304C8.69468 11.882 8.47696 11.5845 8.20118 11.3377C7.93991 11.0765 7.62785 10.8805 7.26498 10.7499C6.90211 10.6047 6.51021 10.5322 6.08928 10.5322C5.68287 10.5322 5.29823 10.6047 4.93536 10.7499C4.57249 10.8805 4.25316 11.0765 3.97738 11.3377C3.71612 11.5845 3.50565 11.882 3.34599 12.2304C3.20084 12.5787 3.12827 12.9634 3.12827 13.3843C3.12827 13.8052 3.20084 14.1899 3.34599 14.5382C3.50565 14.8866 3.71612 15.1914 3.97738 15.4527C4.25316 15.6994 4.57249 15.8954 4.93536 16.0405C5.29823 16.1711 5.68287 16.2365 6.08928 16.2365Z" fill="white"/>
</g>
<g filter="url(#filter1_d_3603_396)">
<path d="M20.3453 14.2987H12.9863C13.1024 14.6906 13.2621 15.01 13.4653 15.2567C13.6685 15.5035 13.8935 15.6994 14.1402 15.8446C14.4015 15.9897 14.67 16.0913 14.9458 16.1494C15.2216 16.2074 15.4901 16.2365 15.7513 16.2365C15.9836 16.2365 16.2303 16.2147 16.4916 16.1711C16.7384 16.1421 16.9924 16.0913 17.2536 16.0187C17.5149 15.9462 17.7834 15.8446 18.0592 15.7139L19.2567 17.4122C18.9228 17.5718 18.5672 17.7097 18.1898 17.8258C17.8415 17.9419 17.4568 18.0363 17.0359 18.1089C16.6295 18.1959 16.194 18.2395 15.7296 18.2395C15.0329 18.2395 14.387 18.1234 13.7919 17.8911C13.1967 17.6589 12.6815 17.3323 12.246 16.9114C11.8106 16.4759 11.4695 15.9607 11.2227 15.3656C10.976 14.7705 10.8526 14.11 10.8526 13.3843C10.8526 12.7166 10.9687 12.0925 11.201 11.5119C11.4332 10.9168 11.7598 10.4015 12.1807 9.96608C12.6016 9.51612 13.1024 9.16776 13.683 8.92101C14.2636 8.65975 14.9022 8.52911 15.5989 8.52911C16.2086 8.52911 16.7964 8.63797 17.3625 8.8557C17.9286 9.0589 18.4293 9.37823 18.8648 9.81367C19.3147 10.2346 19.6703 10.7644 19.9316 11.403C20.2074 12.0272 20.3453 12.7529 20.3453 13.5803V14.2987ZM15.5989 10.5322C15.0909 10.5322 14.5829 10.6846 14.0749 10.9894C13.5669 11.2942 13.2113 11.7877 13.0081 12.4699H18.1898C18.0011 11.7877 17.6455 11.2942 17.123 10.9894C16.615 10.6846 16.107 10.5322 15.5989 10.5322ZM14.5321 7.5276L16.0126 4.7843H18.4511L16.644 7.5276H14.5321Z" fill="white"/>
</g>
<g filter="url(#filter2_d_3603_396)">
<path d="M21.986 5.32512H22.2988V4.09453H22.7883V3.74438H21.4863V4.09453H21.986V5.32512ZM24.7838 4.2169V5.32512H25.0965V3.74438H24.7566L24.1515 4.51945L23.5464 3.74438H23.203V5.32512H23.5192V4.2169L24.1243 4.98517H24.1787L24.7838 4.2169Z" fill="white"/>
</g>
<defs>
<filter id="filter0_d_3603_396" x="0.00339836" y="4.98022" width="12.2139" height="15.2408" filterUnits="userSpaceOnUse" color-interpolation-filters="sRGB">
<feFlood flood-opacity="0" result="BackgroundImageFix"/>
<feColorMatrix in="SourceAlpha" type="matrix" values="0 0 0 0 0 0 0 0 0 0 0 0 0 0 0 0 0 0 127 0" result="hardAlpha"/>
<feOffset dy="0.990742"/>
<feGaussianBlur stdDeviation="0.495371"/>
<feComposite in2="hardAlpha" operator="out"/>
<feColorMatrix type="matrix" values="0 0 0 0 0 0 0 0 0 0 0 0 0 0 0 0 0 0 0.06 0"/>
<feBlend mode="normal" in2="BackgroundImageFix" result="effect1_dropShadow_3603_396"/>
<feBlend mode="normal" in="SourceGraphic" in2="effect1_dropShadow_3603_396" result="shape"/>
</filter>
<filter id="filter1_d_3603_396" x="9.86277" y="4.78442" width="11.4737" height="15.4366" filterUnits="userSpaceOnUse" color-interpolation-filters="sRGB">
<feFlood flood-opacity="0" result="BackgroundImageFix"/>
<feColorMatrix in="SourceAlpha" type="matrix" values="0 0 0 0 0 0 0 0 0 0 0 0 0 0 0 0 0 0 127 0" result="hardAlpha"/>
<feOffset dy="0.990742"/>
<feGaussianBlur stdDeviation="0.495371"/>
<feComposite in2="hardAlpha" operator="out"/>
<feColorMatrix type="matrix" values="0 0 0 0 0 0 0 0 0 0 0 0 0 0 0 0 0 0 0.06 0"/>
<feBlend mode="normal" in2="BackgroundImageFix" result="effect1_dropShadow_3603_396"/>
<feBlend mode="normal" in="SourceGraphic" in2="effect1_dropShadow_3603_396" result="shape"/>
</filter>
<filter id="filter2_d_3603_396" x="20.4956" y="3.74438" width="5.59086" height="3.5623" filterUnits="userSpaceOnUse" color-interpolation-filters="sRGB">
<feFlood flood-opacity="0" result="BackgroundImageFix"/>
<feColorMatrix in="SourceAlpha" type="matrix" values="0 0 0 0 0 0 0 0 0 0 0 0 0 0 0 0 0 0 127 0" result="hardAlpha"/>
<feOffset dy="0.990742"/>
<feGaussianBlur stdDeviation="0.495371"/>
<feComposite in2="hardAlpha" operator="out"/>
<feColorMatrix type="matrix" values="0 0 0 0 0 0 0 0 0 0 0 0 0 0 0 0 0 0 0.06 0"/>
<feBlend mode="normal" in2="BackgroundImageFix" result="effect1_dropShadow_3603_396"/>
<feBlend mode="normal" in="SourceGraphic" in2="effect1_dropShadow_3603_396" result="shape"/>
</filter>
</defs>
</svg>
