<svg width="19" height="17" viewBox="0 0 19 17" fill="none" xmlns="http://www.w3.org/2000/svg">
<path d="M17.6625 12.6691V14.9431C17.6634 15.1542 17.615 15.3632 17.5204 15.5566C17.4257 15.7501 17.2869 15.9237 17.1128 16.0664C16.9387 16.2091 16.7332 16.3178 16.5094 16.3854C16.2856 16.453 16.0484 16.4781 15.8131 16.4591C13.2027 16.2057 10.6952 15.4087 8.49214 14.1321C6.44246 12.9683 4.70469 11.4155 3.40224 9.58405C1.96856 7.60657 1.07636 5.35513 0.797901 3.01214C0.776702 2.80253 0.804582 2.59127 0.879764 2.39181C0.954947 2.19235 1.07579 2.00907 1.23459 1.85362C1.39339 1.69818 1.58667 1.57399 1.80213 1.48895C2.01759 1.40391 2.25051 1.35989 2.48605 1.35969H5.03101C5.4427 1.35607 5.84182 1.48634 6.15398 1.72621C6.46613 1.96609 6.67002 2.2992 6.72764 2.66346C6.83506 3.3912 7.03427 4.10574 7.32146 4.79345C7.4356 5.06476 7.4603 5.35962 7.39264 5.64309C7.32499 5.92655 7.1678 6.18675 6.93972 6.39284L5.86236 7.35551C7.06999 9.25321 8.82846 10.8245 10.9523 11.9035L12.0296 10.9409C12.2603 10.7371 12.5515 10.5966 12.8687 10.5362C13.186 10.4757 13.5159 10.4978 13.8196 10.5998C14.5892 10.8564 15.3889 11.0344 16.2034 11.1304C16.6154 11.1823 16.9918 11.3678 17.2608 11.6515C17.5298 11.9352 17.6728 12.2974 17.6625 12.6691Z" stroke="#787878" stroke-width="1.01798" stroke-linecap="round" stroke-linejoin="round"/>
</svg>
